<svg width="14" height="18" viewBox="0 0 14 18" fill="none" xmlns="http://www.w3.org/2000/svg">
<path fill-rule="evenodd" clip-rule="evenodd" d="M6.27833 0.458344C7.37833 0.458344 8.14417 0.45751 8.81167 0.795844C9.48083 1.13418 9.9325 1.75168 10.5825 2.63918L12.8408 5.71918C13.2683 6.30084 13.5642 6.70418 13.72 7.17918C13.8758 7.65418 13.875 8.15501 13.875 8.87668V11.9625C13.875 13.1017 13.875 14.0208 13.7783 14.7433C13.6767 15.4933 13.4617 16.125 12.96 16.6267C12.4583 17.1283 11.8267 17.3433 11.0767 17.445C10.3542 17.5417 9.435 17.5417 8.29583 17.5417H5.70417C4.565 17.5417 3.64583 17.5417 2.92333 17.445C2.17333 17.3433 1.54167 17.1283 1.04 16.6267C0.538333 16.125 0.323333 15.4933 0.2225 14.7433C0.125 14.0208 0.125 13.1017 0.125 11.9625V6.03751C0.125 4.89834 0.125 3.97918 0.2225 3.25668C0.3225 2.50668 0.539167 1.87501 1.04 1.37334C1.54167 0.871677 2.17333 0.656677 2.92333 0.555844C3.64583 0.458344 4.565 0.458344 5.70417 0.458344H6.27917H6.27833ZM6.13333 1.70834C6.58333 1.70834 6.93083 1.71001 7.20833 1.72001V1.96168C7.20833 3.10168 7.20833 4.02001 7.30583 4.74334C7.40583 5.49334 7.6225 6.12501 8.12333 6.62668C8.625 7.12834 9.25667 7.34334 10.0067 7.44501C10.6725 7.53418 11.505 7.54084 12.5233 7.54168L12.5317 7.56834C12.6175 7.83084 12.625 8.11834 12.625 8.97001V11.9167C12.625 13.1125 12.6233 13.9467 12.5392 14.5767C12.4567 15.1883 12.3058 15.5117 12.0758 15.7425C11.845 15.9733 11.5217 16.1233 10.9092 16.2058C10.2808 16.29 9.44583 16.2917 8.25 16.2917H5.75C4.55417 16.2917 3.71917 16.29 3.09 16.2058C2.47833 16.1233 2.155 15.9725 1.92417 15.7425C1.69333 15.5117 1.54333 15.1883 1.46083 14.5758C1.37667 13.9467 1.375 13.1125 1.375 11.9167V6.08334C1.375 4.88751 1.37667 4.05251 1.46083 3.42334C1.54333 2.81168 1.69417 2.48834 1.92417 2.25751C2.155 2.02668 2.47833 1.87668 3.09083 1.79418C3.71917 1.71001 4.55417 1.70834 5.75 1.70834H6.13333ZM9.66083 3.49584L11.7083 6.28751C11.0808 6.28084 10.5833 6.26084 10.1733 6.20584C9.56167 6.12334 9.23833 5.97251 9.0075 5.74251C8.77667 5.51168 8.62667 5.18834 8.54417 4.57584C8.4625 3.97001 8.45833 3.17251 8.45833 2.04334C8.74167 2.26084 9.04083 2.65001 9.66083 3.49584ZM3.04167 9.83334C3.04167 9.66758 3.10751 9.50861 3.22472 9.3914C3.34193 9.27419 3.50091 9.20834 3.66667 9.20834H7.83333C7.99909 9.20834 8.15806 9.27419 8.27527 9.3914C8.39248 9.50861 8.45833 9.66758 8.45833 9.83334C8.45833 9.9991 8.39248 10.1581 8.27527 10.2753C8.15806 10.3925 7.99909 10.4583 7.83333 10.4583H3.66667C3.50091 10.4583 3.34193 10.3925 3.22472 10.2753C3.10751 10.1581 3.04167 9.9991 3.04167 9.83334ZM3.04167 13.1667C3.04167 13.0009 3.10751 12.8419 3.22472 12.7247C3.34193 12.6075 3.50091 12.5417 3.66667 12.5417H10.3333C10.4991 12.5417 10.6581 12.6075 10.7753 12.7247C10.8925 12.8419 10.9583 13.0009 10.9583 13.1667C10.9583 13.3324 10.8925 13.4914 10.7753 13.6086C10.6581 13.7258 10.4991 13.7917 10.3333 13.7917H3.66667C3.50091 13.7917 3.34193 13.7258 3.22472 13.6086C3.10751 13.4914 3.04167 13.3324 3.04167 13.1667Z" fill="#586474"/>
</svg>
